<svg width="857" height="236" viewBox="0 0 857 236" fill="none" xmlns="http://www.w3.org/2000/svg">
<path d="M308.173 174.6L329.974 65.5949H350.841L397.713 144.546L389.46 144.079L405.032 65.5949H429.947L408.146 174.6H387.435L340.407 95.6491L348.816 96.1163L333.088 174.6H308.173ZM466.327 175.846C459.89 175.846 453.921 174.392 448.419 171.486C442.916 168.475 438.504 164.167 435.182 158.561C431.86 152.955 430.199 146.207 430.199 138.317C430.199 131.257 431.341 124.769 433.625 118.852C436.013 112.934 439.335 107.795 443.591 103.435C447.848 99.075 452.779 95.701 458.385 93.3133C463.991 90.8218 470.012 89.576 476.448 89.576C483.404 89.576 489.373 90.8737 494.356 93.469C499.34 96.0644 503.025 100.113 505.413 105.615C507.904 111.014 508.787 118.021 508.06 126.638C507.541 136.5 505.516 145.169 501.987 152.643C498.457 160.014 493.682 165.724 487.66 169.773C481.743 173.821 474.632 175.846 466.327 175.846ZM473.801 155.758C478.577 155.758 482.781 154.616 486.415 152.332C490.152 149.944 493.059 146.726 495.135 142.677C497.315 138.524 498.405 133.697 498.405 128.195C498.405 122.485 496.692 117.969 493.266 114.647C489.944 111.325 485.273 109.664 479.251 109.664C474.58 109.664 470.375 110.858 466.638 113.246C462.901 115.53 459.942 118.748 457.762 122.9C455.686 126.949 454.647 131.725 454.647 137.227C454.647 142.937 456.308 147.453 459.631 150.775C463.056 154.097 467.78 155.758 473.801 155.758ZM490.463 174.6L493.734 157.938L499.184 133.022L502.454 108.107L505.88 90.8218H530.172L513.51 174.6H490.463ZM566.211 175.846C560.19 175.846 555.051 174.652 550.795 172.264C546.538 169.773 543.476 166.243 541.607 161.675C539.842 157.003 539.583 151.501 540.828 145.169L555.31 72.2909H579.603L565.121 145.013C564.498 148.543 564.861 151.346 566.211 153.422C567.561 155.498 570.052 156.536 573.686 156.536C575.347 156.536 577.008 156.277 578.669 155.758C580.434 155.239 582.043 154.512 583.496 153.578L587.078 170.863C584.067 172.731 580.745 174.029 577.112 174.756C573.478 175.482 569.845 175.846 566.211 175.846ZM534.6 111.377L538.337 92.6904H596.421L592.684 111.377H534.6ZM631.703 175.846C624.851 175.846 618.934 174.392 613.951 171.486C608.968 168.475 605.438 164.115 603.362 158.405C601.285 152.695 601.078 145.636 602.739 137.227L611.926 90.8218H636.219L627.343 135.67C626.097 141.795 626.564 146.518 628.744 149.84C631.028 153.162 635.025 154.823 640.735 154.823C646.756 154.823 651.791 153.058 655.84 149.529C659.992 145.999 662.743 140.601 664.093 133.334L672.658 90.8218H696.95L680.288 174.6H657.241L661.913 150.93L665.339 158.093C661.394 164.219 656.463 168.734 650.545 171.641C644.628 174.444 638.347 175.846 631.703 175.846ZM698.9 174.6L715.563 90.8218H738.609L733.782 114.647L731.602 107.795C735.339 101.047 740.219 96.3239 746.24 93.6247C752.261 90.9256 759.476 89.576 767.885 89.576L763.525 112C762.487 111.896 761.5 111.844 760.566 111.844C759.736 111.74 758.853 111.688 757.919 111.688C750.756 111.688 744.89 113.453 740.322 116.983C735.858 120.513 732.848 126.222 731.29 134.112L723.193 174.6H698.9ZM805.391 175.846C796.67 175.846 789.092 174.289 782.655 171.174C776.323 168.06 771.392 163.699 767.862 158.093C764.332 152.488 762.567 145.895 762.567 138.317C762.567 128.974 764.644 120.668 768.796 113.401C773.053 106.031 778.866 100.217 786.237 95.9606C793.712 91.7042 802.276 89.576 811.931 89.576C820.132 89.576 827.192 91.1332 833.109 94.2476C839.027 97.2582 843.595 101.515 846.813 107.017C850.135 112.415 851.796 118.904 851.796 126.482C851.796 128.662 851.64 130.842 851.329 133.022C851.121 135.202 850.81 137.279 850.394 139.251H781.098L783.59 125.081H839.027L829.061 129.441C829.891 124.769 829.632 120.876 828.282 117.762C826.932 114.543 824.752 112.104 821.742 110.443C818.731 108.678 815.097 107.795 810.841 107.795C805.547 107.795 801.031 109.093 797.293 111.688C793.66 114.18 790.909 117.658 789.04 122.122C787.171 126.586 786.237 131.621 786.237 137.227C786.237 143.663 788.002 148.491 791.532 151.709C795.165 154.823 800.615 156.381 807.882 156.381C812.139 156.381 816.239 155.706 820.184 154.356C824.129 153.007 827.503 151.086 830.306 148.594L840.428 164.634C835.549 168.475 830.047 171.33 823.922 173.198C817.9 174.963 811.724 175.846 805.391 175.846Z" fill="#3685FB"/>
<rect x="103.387" width="91.1502" height="206.773" rx="45.5751" transform="rotate(30 103.387 0)" stroke="#3685FB" stroke-width="18.88"/>
<rect x="201.788" y="11.354" width="91.1502" height="206.773" rx="45.5751" transform="rotate(30 201.788 11.354)" stroke="#3685FB" stroke-width="18.88"/>
</svg>
